# xmcd
#
# Track frame offsets: 
#        150
#        20663
#        39765
#        58212
#        69712
#        86839
#        103138
#        120188
#        133900
#        157547
#        179685
#        204621
#        234872
#        253424
#
# Disc length: 3567 seconds
#
# Revision: 2
# Processed by: cddbd v1.5.2PL0 Copyright (c) Steve Scherf et al.
# Submitted via: ExactAudioCopy v1.0b3
#
DISCID=c20ded0e
DTITLE=Hans Theessink - Wishing well
DYEAR=2013
DGENRE=Blues
TTITLE0=New home upon the hill
TTITLE1=Wishing well
TTITLE2=Wayfaring stranger
TTITLE3=Take your picture
TTITLE4=Snowing on Raton
TTITLE5=Make me down a pallet on your floor
TTITLE6=Alberta, let your hair hang down low
TTITLE7=Living with the blues
TTITLE8=Hellbound
TTITLE9=Kathmandu
TTITLE10=Delia
TTITLE11=Ballad of Hollis Brown
TTITLE12=Didn't we try?
TTITLE13=Early this morning blues
EXTD=
EXTT0=
EXTT1=
EXTT2=
EXTT3=
EXTT4=
EXTT5=
EXTT6=
EXTT7=
EXTT8=
EXTT9=
EXTT10=
EXTT11=
EXTT12=
EXTT13=
PLAYORDER=
